# xmcd
#
# Track frame offsets:
#	150
#	33885
#	61470
#	85909
#	109887
#	141037
#	172848
#	206512
#	233776
#	263838
#	292093
#
# Disc length: 4379 seconds
#
# Revision: 1
# Processed by: cddbd v1.5.1PL0 Copyright (c) Steve Scherf et al.
# Submitted via: EasyCDDAExtractor 7.0.3.1
#
DISCID=9811190b
DTITLE=Various Artist - House 37
DYEAR=1900
DGENRE=
TTITLE0=AFRICANISM - SUMMER MOON
TTITLE1=SALOME DE BAHIA - COPACABANA
TTITLE2=SALOME DE BAHIA - TAJ MAHAL
TTITLE3=RIMINI PROJECT - A DAY IN THE SUN
TTITLE4=KILLERS - MR MRIGHSIDE
TTITLE5=DR ALBAN - SING HALLELUJAH
TTITLE6=LISA STANSFIELD - IF I HADN'T GOT YOU
TTITLE7=BENT FABRIC - JUKEBOX
TTITLE8=DELA DAP - JAG TAN
TTITLE9=LAID BACK - WHENEVER YOU WANT ME
TTITLE10=THERESE - TIME
EXTD=
EXTT0=
EXTT1=
EXTT2=
EXTT3=
EXTT4=
EXTT5=
EXTT6=
EXTT7=
EXTT8=
EXTT9=
EXTT10=
PLAYORDER=
